<svg width="85" height="57" viewBox="0 0 85 57" fill="none" xmlns="http://www.w3.org/2000/svg">
<path fill-rule="evenodd" clip-rule="evenodd" d="M50.2273 1.97229H1.9541L1.9541 49.4753H7.67502L7.67501 9.64036H8.4842V9.59445L50.2273 9.59445V1.97229ZM8.67502 49.4753L8.67501 10.5944L56.0126 10.5944V19.5807H57.0126V9.70886H56.9518V9.59445H51.2273V1.05357H50.9136V0.97229H1.55425V1.00003H0.954102L0.954104 50.3594H1.61478V50.4753H7.67502V56.9631H8.67502L56.0126 56.9631V57H57.0126V47.1282H56.0126V55.9631L8.67502 55.9631L8.67502 50.4753V49.4753ZM48.7898 26.2985H45.5568V39.7242H48.7898V26.2985ZM45.5568 21.3379V24.793H48.7898V21.3379H45.5568ZM19.4258 39.1072C18.3728 38.482 17.5419 37.6429 16.9331 36.5899C16.3244 35.5205 16.02 34.3194 16.02 32.9867C16.02 31.654 16.3244 30.4611 16.9331 29.4081C17.5419 28.3551 18.3728 27.5242 19.4258 26.9155C20.4952 26.3067 21.6963 26.0023 23.029 26.0023C23.9833 26.0023 24.8718 26.1751 25.6944 26.5206C26.5171 26.8497 27.2246 27.3103 27.8169 27.9027C28.4256 28.4785 28.8617 29.1695 29.1249 29.9757L26.2867 31.2097C26.0399 30.5352 25.6204 29.9922 25.0281 29.5809C24.4522 29.1695 23.7859 28.9639 23.029 28.9639C22.3215 28.9639 21.6881 29.1366 21.1287 29.4822C20.5857 29.8277 20.158 30.3048 19.8453 30.9136C19.5327 31.5223 19.3764 32.2216 19.3764 33.0114C19.3764 33.8011 19.5327 34.5004 19.8453 35.1091C20.158 35.7179 20.5857 36.195 21.1287 36.5405C21.6881 36.8861 22.3215 37.0588 23.029 37.0588C23.8023 37.0588 24.4769 36.8532 25.0528 36.4418C25.6286 36.0305 26.0399 35.4793 26.2867 34.7883L29.1249 36.0716C28.8617 36.8285 28.4339 37.5113 27.8416 38.12C27.2493 38.7124 26.5418 39.1813 25.7191 39.5268C24.8965 39.8559 23.9998 40.0204 23.029 40.0204C21.6963 40.0204 20.4952 39.716 19.4258 39.1072ZM30.344 26.2985H33.8732L37.0467 35.0613L40.2406 26.2985H43.7698L38.4883 39.7242H35.6255L30.344 26.2985ZM51.7749 26.2985H54.8105V27.9458C55.1211 27.3947 55.5489 26.9608 56.0938 26.644C56.8178 26.2162 57.6569 26.0023 58.6111 26.0023C59.5983 26.0023 60.4703 26.2162 61.2272 26.644C62.0005 27.0718 62.601 27.6723 63.0288 28.4456C63.4566 29.2025 63.6705 30.0827 63.6705 31.0863V39.7242H60.4374V31.8514C60.4374 31.2591 60.3223 30.749 60.0919 30.3213C59.8616 29.8935 59.5407 29.5644 59.1294 29.3341C58.7345 29.0873 58.2656 28.9639 57.7227 28.9639C57.1962 28.9639 56.7273 29.0873 56.3159 29.3341C55.9046 29.5644 55.5838 29.8935 55.3534 30.3213C55.1231 30.749 55.0079 31.2591 55.0079 31.8514V39.7242H51.7749V26.2985ZM66.7745 36.5899C67.3833 37.6429 68.2142 38.482 69.2672 39.1072C70.3366 39.716 71.5377 40.0204 72.8704 40.0204C73.8411 40.0204 74.7378 39.8559 75.5605 39.5268C76.3831 39.1813 77.0906 38.7124 77.6829 38.12C78.2753 37.5113 78.703 36.8285 78.9663 36.0716L76.1281 34.7883C75.8813 35.4793 75.47 36.0305 74.8941 36.4418C74.3183 36.8532 73.6437 37.0588 72.8704 37.0588C72.1629 37.0588 71.5295 36.8861 70.9701 36.5405C70.4271 36.195 69.9993 35.7179 69.6867 35.1091C69.3741 34.5004 69.2178 33.8011 69.2178 33.0114C69.2178 32.2216 69.3741 31.5223 69.6867 30.9136C69.9993 30.3048 70.4271 29.8277 70.9701 29.4822C71.5295 29.1366 72.1629 28.9639 72.8704 28.9639C73.6273 28.9639 74.2936 29.1695 74.8695 29.5809C75.4618 29.9922 75.8813 30.5352 76.1281 31.2097L78.9663 29.9757C78.703 29.1695 78.267 28.4785 77.6583 27.9027C77.0659 27.3103 76.3585 26.8497 75.5358 26.5206C74.7132 26.1751 73.8247 26.0023 72.8704 26.0023C71.5377 26.0023 70.3366 26.3067 69.2672 26.9155C68.2142 27.5242 67.3833 28.3551 66.7745 29.4081C66.1658 30.4611 65.8614 31.654 65.8614 32.9867C65.8614 34.3194 66.1658 35.5205 66.7745 36.5899ZM81.4194 26.2985H84.6524V39.7242H81.4194V26.2985ZM81.4194 24.793V21.3379H84.6524V24.793H81.4194Z" fill="white"/>
</svg>
